# xmcd
#
# Track frame offsets: 
#        150
#        14434
#        31902
#        44222
#        60464
#        75577
#        89701
#        104076
#        134159
#        150923
#        166622
#        182265
#        196556
#        215633
#        234397
#        249775
#        265905
#        277152
#        292272
#
# Disc length: 4128 seconds
#
# Revision: 0
# Processed by: cddbd v1.5.2PL0 Copyright (c) Steve Scherf et al.
# Submitted via: ExactAudioCopy v1.3
#
DISCID=0d101e13
DTITLE=Powder Blues - First Decade Greatest Hits
DYEAR=1990
DGENRE=Jump Blues
TTITLE0=Boppin With The Blues
TTITLE1=Hear That Guitar Ring
TTITLE2=Just A Little
TTITLE3=The Rockchopper
TTITLE4=Doin It Right
TTITLE5=Buzzard Luck
TTITLE6=What’ve I Been Drinkin
TTITLE7=Personal Manager
TTITLE8=Sweet Little Girl
TTITLE9=Thirsty Ears
TTITLE10=Should Be You And Me
TTITLE11=Swami Swing
TTITLE12=Joyridin
TTITLE13=Nothin But A Tease
TTITLE14=Lovin Kissin And Huggin
TTITLE15=Pushy
TTITLE16=Your Daddy
TTITLE17=Slow Motion Walter
TTITLE18=I’m On The Road Again
EXTD=
EXTT0=
EXTT1=
EXTT2=
EXTT3=
EXTT4=
EXTT5=
EXTT6=
EXTT7=
EXTT8=
EXTT9=
EXTT10=
EXTT11=
EXTT12=
EXTT13=
EXTT14=
EXTT15=
EXTT16=
EXTT17=
EXTT18=
PLAYORDER=
